#!OML:ASF Y:\EmotionMaleHayes\Project 1\Capture day 1\Session 1\Male1.ASF
:FULLY-SPECIFIED
:DEGREES
307
root 16.352 16.2351 0.075647 461.348 82.4136 463.277
lowerback 8.5318 -1.20658 -10.5822
upperback 2.62125 -2.39261 0.436067
thorax -1.56853 -1.1795 6.63951
lowerneck -24.7262 4.31834 4.58015
upperneck 19.3551 5.26895 -3.76637
head 10.5012 2.29608 -1.25163
rclavicle -1.44119e-015 6.36111e-015
rhumerus -48.5358 -4.05871 -77.2991
rradius 24.5363
rwrist 9.16431
rhand -7.98217 -31.6601
rfingers 7.12502
rthumb 17.926 -60.8539
lclavicle -1.44119e-015 6.36111e-015
lhumerus -17.5808 -14.3931 86.4904
lradius 52.9874
lwrist 4.6937
lhand -25.3077 -30.2284
lfingers 7.12502
lthumb 1.21434 -0.252068
rfemur -27.1236 -0.15934 10.7903
rtibia 30.8291
rfoot -7.45791 -4.71709
rtoes 12.3661
lfemur 24.021 -0.865378 -29.6011
ltibia 30.6998
lfoot -5.85067 1.93175
ltoes -11.8358
308
root 16.5758 16.2569 0.0881637 459.14 83.0495 461.38
lowerback 8.7732 -1.12772 -10.0435
upperback 2.70531 -2.26077 0.608997
thorax -1.65634 -1.112 6.51539
lowerneck -24.712 4.36039 4.41739
upperneck 19.4875 5.33009 -3.51593
head 10.5368 2.34303 -1.12503
rclavicle -1.77415e-014 -1.23246e-014
rhumerus -47.7557 -3.69585 -77.7714
rradius 24.9336
rwrist 8.61437
rhand -7.93449 -32.1504
rfingers 7.12502
rthumb 17.9719 -61.3401
lclavicle -1.77415e-014 -1.23246e-014
lhumerus -18.5318 -14.0642 86.9138
lradius 52.4298
lwrist 5.1696
lhand -25.311 -29.7567
lfingers 7.12502
lthumb 1.21122 0.219642
rfemur -26.1163 0.543539 11.7849
rtibia 31.1009
rfoot -8.07735 -4.5498
rtoes 8.08812
lfemur 23.0997 -0.357487 -28.5017
ltibia 33.6252
lfoot -3.42752 2.27715
ltoes -5.71898
309
root 16.7967 16.2821 0.097934 457.142 83.7878 459.69
lowerback 9.02619 -1.05391 -9.33949
upperback 2.81003 -2.11701 0.790571
thorax -1.73608 -1.03903 6.30398
lowerneck -24.8794 4.41105 4.47565
upperneck 19.7374 5.3662 -3.45376
head 10.6595 2.36858 -1.10299
rclavicle -3.62782e-015 7.15625e-015
rhumerus -46.7324 -3.46277 -78.2358
rradius 25.022
rwrist 8.03816
rhand -8.1269 -32.3066
rfingers 7.12502
rthumb 17.7867 -61.5132
lclavicle -3.62782e-015 7.15625e-015
lhumerus -19.5233 -13.7218 87.311
lradius 51.7676
lwrist 5.36275
lhand -25.2785 -29.5253
lfingers 7.12502
lthumb 1.24259 0.450801
rfemur -24.6749 0.989695 12.8898
rtibia 30.7346
rfoot -8.69605 -4.42992
rtoes 8.1107
lfemur 22.1596 0.137986 -27.2882
ltibia 36.3836
lfoot -0.799118 2.52026
ltoes -5.78865
310
root 17.0188 16.3078 0.107675 455.231 84.6961 458.132
lowerback 9.24888 -0.982646 -8.41944
upperback 2.95284 -1.94701 0.989442
thorax -1.76893 -0.955327 5.98194
lowerneck -25.0178 4.39038 4.51032
upperneck 19.9753 5.31701 -3.40809
head 10.7693 2.35212 -1.09769
rclavicle -3.40419e-014 -6.75868e-015
rhumerus -45.6953 -3.33888 -78.6909
rradius 25.034
rwrist 7.61152
rhand -8.4289 -32.1568
rfingers 7.12502
rthumb 17.4961 -61.3895
lclavicle -3.40419e-014 -6.75868e-015
lhumerus -20.4506 -13.5698 87.6929
lradius 50.8392
lwrist 5.25086
lhand -25.3817 -29.5749
lfingers 7.12502
lthumb 1.14292 0.401823
rfemur -23.6934 2.02497 14.2242
rtibia 31.3384
rfoot -10.0511 -4.8313
rtoes 14.6786
lfemur 21.2723 0.656943 -25.8887
ltibia 38.9874
lfoot 2.26818 2.597
ltoes -7.05368
311
root 17.2419 16.335 0.118859 453.149 85.79 456.418
lowerback 9.46589 -0.917374 -7.31283
upperback 3.05652 -1.76413 1.24783
thorax -1.84243 -0.861581 5.61397
lowerneck -25.115 4.32642 4.55567
upperneck 20.2665 5.21834 -3.39942
head 10.8914 2.31028 -1.11641
rclavicle 1.81888e-014 1.15295e-014
rhumerus -44.9923 -3.05617 -79.1939
rradius 25.5293
rwrist 6.94848
rhand -8.5385 -32.3166
rfingers 7.12502
rthumb 17.3906 -61.5587
lclavicle 1.81888e-014 1.15295e-014
lhumerus -21.3115 -13.478 88.1268
lradius 49.75
lwrist 5.11601
lhand -25.3849 -29.5173
lfingers 7.12502
lthumb 1.13984 0.459389
rfemur -22.0185 2.62733 15.8077
rtibia 30.8581
rfoot -10.6403 -4.75555
rtoes 7.15759
lfemur 20.3763 1.13172 -24.2747
ltibia 41.5537
lfoot 5.34794 3.01459
ltoes -3.28622
312
root 17.459 16.3667 0.128125 450.951 86.7993 454.513
lowerback 9.79538 -0.869316 -6.22588
upperback 3.01337 -1.61592 1.45607
thorax -2.12213 -0.774429 5.21158
lowerneck -25.1047 4.28795 4.55489
upperneck 20.652 5.14109 -3.23284
head 11.0242 2.29712 -1.06776
rclavicle 1.78906e-015 -1.59028e-015
rhumerus -44.5754 -2.55156 -79.8472
rradius 26.3393
rwrist 5.79368
rhand -8.57969 -32.867
rfingers 7.12502
rthumb 17.351 -62.1125
lclavicle 1.78906e-015 -1.59028e-015
lhumerus -22.2034 -13.4144 88.5825
lradius 48.4745
lwrist 5.04235
lhand -25.2313 -29.265
lfingers 7.12502
lthumb 1.28821 0.710882
rfemur -20.5231 3.11623 17.2664
rtibia 30.4454
rfoot -11.1995 -4.91283
rtoes 5.68589
lfemur 19.2613 1.52622 -22.7724
ltibia 44.164
lfoot 8.21215 3.80614
ltoes 2.35206
313
root 17.6665 16.4013 0.136008 449.329 87.6945 453.074
lowerback 9.88289 -0.837786 -5.24245
upperback 3.08483 -1.47389 1.61953
thorax -2.14047 -0.702718 4.81041
lowerneck -25.0037 4.24176 4.61437
upperneck 20.7834 5.03034 -3.09796
head 11.0477 2.27109 -1.04793
rclavicle -3.27995e-015 1.07344e-014
rhumerus -43.8147 -2.2692 -80.4498
rradius 26.9757
rwrist 4.63444
rhand -8.73593 -33.141
rfingers 7.12502
rthumb 17.2006 -62.3997
lclavicle -3.27995e-015 1.07344e-014
lhumerus -22.7088 -13.4569 88.9644
lradius 46.9521
lwrist 4.78058
lhand -24.9826 -28.7917
lfingers 7.12502
lthumb 1.52836 1.18255
rfemur -19.1924 3.42383 18.5218
rtibia 30.0472
rfoot -11.8905 -4.99248
rtoes 9.56819
lfemur 17.8994 1.91168 -21.4006
ltibia 46.7819
lfoot 8.59614 4.2208
ltoes 3.85262
